<svg width="13" height="24" viewBox="0 0 13 24" fill="none" xmlns="http://www.w3.org/2000/svg">
<g clip-path="url(#clip0_4_82)">
<path d="M8.09375 24V13.0625H11.7812L12.3125 8.78125H8.09375V6.0625C8.09375 5.4375 8.22396 4.93229 8.48438 4.54688C8.74479 4.16146 9.3125 3.96875 10.1875 3.96875H12.4375V0.15625C11.9583 0.114583 11.4479 0.078125 10.9062 0.046875C10.3646 0.015625 9.82292 0 9.28125 0C9.26042 0 9.23958 0 9.21875 0C9.19792 0 9.17708 0 9.15625 0C7.53124 0 6.20834 0.48437 5.1875 1.45312C4.16666 2.42188 3.65625 3.82291 3.65625 5.65625V8.78125H0V13.0625H3.65625V24H8.09375Z" fill="#A14343"/>
</g>
<defs>
<clipPath id="clip0_4_82">
<rect width="12.4375" height="24" fill="white"/>
</clipPath>
</defs>
</svg>
