<svg width="25" height="25" viewBox="0 0 25 25" fill="none" xmlns="http://www.w3.org/2000/svg">
<g clip-path="url(#clip0_4_84)">
<path d="M6.28125 2.9375C6.28125 3.72917 5.9948 4.41145 5.42188 4.98438C4.84895 5.5573 4.16667 5.84375 3.375 5.84375C2.5625 5.84375 1.8698 5.5573 1.29688 4.98438C0.723955 4.41145 0.4375 3.72917 0.4375 2.9375C0.4375 2.125 0.723955 1.4323 1.29688 0.859375C1.8698 0.286455 2.5625 0 3.375 0C4.16667 0 4.84895 0.286455 5.42188 0.859375C5.9948 1.4323 6.28125 2.125 6.28125 2.9375ZM9.03125 8.0625V24.25H14.0625V16.25C14.0625 15.1875 14.2396 14.2292 14.5938 13.375C14.9479 12.5208 15.7708 12.0938 17.0625 12.0938C18.3542 12.0938 19.1146 12.5729 19.3438 13.5312C19.5729 14.4896 19.6875 15.4375 19.6875 16.375V24.25H24.7188V15.375C24.7188 13.1875 24.349 11.3542 23.6094 9.875C22.8698 8.39583 21.2292 7.65625 18.6875 7.65625C17.4583 7.65625 16.4427 7.93229 15.6406 8.48438C14.8385 9.03646 14.2708 9.63541 13.9375 10.2812H13.8438V8.0625H9.03125ZM0.84375 8.0625H5.875V24.25H0.84375V8.0625Z" fill="#A14343"/>
</g>
<defs>
<clipPath id="clip0_4_84">
<rect width="24.2812" height="24.25" fill="white" transform="translate(0.4375)"/>
</clipPath>
</defs>
</svg>
