<svg width="85" height="103" viewBox="0 0 85 103" fill="none" xmlns="http://www.w3.org/2000/svg">
<g clip-path="url(#clip0_4_125)">
<path d="M42.8358 0L84.7611 18.672V46.4629C84.7611 59.3453 80.7579 71.1056 72.7513 81.7444C64.7447 92.3831 54.7729 99.1499 42.8358 102.045C30.8986 99.1499 20.9269 92.3831 12.9203 81.7444C4.91365 71.1056 0.9104 59.3453 0.9104 46.4629V18.672L42.8358 0ZM42.8358 51.0224V92.4917C51.4247 89.7415 58.7033 84.5669 64.6719 76.9678C70.6405 69.3687 74.207 60.7203 75.3716 51.0224H42.8358ZM42.8358 51.0224V10.2045L10.2999 24.5342V51.0224H42.8358Z" fill="#F6C6C6"/>
</g>
<defs>
<clipPath id="clip0_4_125">
<rect width="83.8507" height="102.045" fill="white" transform="translate(0.9104)"/>
</clipPath>
</defs>
</svg>
