<svg width="119" height="113" viewBox="0 0 119 113" fill="none" xmlns="http://www.w3.org/2000/svg">
<g clip-path="url(#clip0_4_121)">
<path d="M106.958 71.0026V35.5013H89.1318V47.1502H77.1547V35.5013H41.502V47.1502H29.5249V35.5013H11.6985V71.0026H106.958ZM106.958 100.402V88.7533H11.6985V100.402H106.958ZM41.502 11.6489V23.5751H77.1547V11.6489H41.502ZM106.958 23.5751C110.301 23.5751 113.086 24.7307 115.314 27.042C117.543 29.3533 118.657 32.173 118.657 35.5013V100.402C118.657 103.73 117.543 106.55 115.314 108.861C113.086 111.173 110.301 112.328 106.958 112.328H11.6985C8.35609 112.328 5.57075 111.173 3.34244 108.861C1.11414 106.55 0 103.73 0 100.402V35.5013C0 32.173 1.11414 29.3533 3.34244 27.042C5.57075 24.7307 8.35609 23.5751 11.6985 23.5751H29.5249V11.6489C29.5249 8.3206 30.6855 5.54709 33.0066 3.32825C35.3278 1.1094 38.1595 0 41.502 0H77.1547C80.4972 0 83.3289 1.1094 85.6501 3.32825C87.9712 5.54709 89.1318 8.3206 89.1318 11.6489V23.5751H106.958Z" fill="#F6C6C6"/>
</g>
<defs>
<clipPath id="clip0_4_121">
<rect width="118.657" height="112.328" fill="white"/>
</clipPath>
</defs>
</svg>
