<svg width="102" height="102" viewBox="0 0 102 102" fill="none" xmlns="http://www.w3.org/2000/svg">
<g clip-path="url(#clip0_4_123)">
<path d="M51.2836 0C44.3278 0 37.7673 1.34371 31.602 4.03118C25.4366 6.6396 20.0617 10.236 15.4772 14.8205C10.8927 19.405 7.29634 24.7799 4.68792 30.9452C2.00045 37.1106 0.656738 43.6711 0.656738 50.6269C0.656738 57.5827 2.00045 64.1431 4.68792 70.3085C7.29634 76.4739 10.8927 81.8487 15.4772 86.4332C20.0617 91.0177 25.4366 94.6141 31.602 97.2225C37.7673 99.91 44.3278 101.254 51.2836 101.254C58.2394 101.254 64.7999 99.91 70.9652 97.2225C77.1306 94.6141 82.5055 91.0177 87.09 86.4332C91.6745 81.8487 95.2709 76.4739 97.8793 70.3085C100.567 64.1431 101.91 57.5827 101.91 50.6269C101.91 43.6711 100.567 37.1106 97.8793 30.9452C95.2709 24.7799 91.6745 19.405 87.09 14.8205C82.5055 10.236 77.1306 6.6396 70.9652 4.03118C64.7999 1.34371 58.2394 0 51.2836 0ZM10.8532 50.6269C10.8532 48.3346 11.0311 46.1017 11.3868 43.928C11.7425 41.7543 12.276 39.6399 12.9874 37.5848L31.0091 55.7251V65.8031L46.1853 80.9793V90.7015C41.2056 90.0692 36.5817 88.6069 32.3133 86.3147C27.966 84.0224 24.2115 81.0781 21.0498 77.4816C17.888 73.8852 15.3982 69.7947 13.5802 65.2102C11.7622 60.6257 10.8532 55.7647 10.8532 50.6269ZM83.2959 75.2882C81.636 73.9445 79.6995 72.8774 77.4863 72.087C75.2731 71.2965 73.297 70.9013 71.5581 70.9013V65.8031C71.5581 63.0366 70.57 60.6653 68.594 58.6892C66.6179 56.7131 64.2071 55.7251 61.3615 55.7251H41.2057V40.5489C43.9722 40.5489 46.3434 39.5609 48.3195 37.5848C50.2956 35.6087 51.2836 33.198 51.2836 30.3524V25.3727H56.3819C59.1484 25.3727 61.5196 24.3847 63.4957 22.4086C65.4718 20.4325 66.4598 18.0218 66.4598 15.1762V13.1606C70.1748 14.6624 73.5736 16.678 76.6563 19.2074C79.739 21.6577 82.4067 24.5032 84.6594 27.744C86.9121 30.9848 88.6708 34.5417 89.9355 38.4148C91.1211 42.2879 91.714 46.3585 91.714 50.6269C91.714 55.2904 90.9631 59.7365 89.4612 63.9653C87.9594 68.1941 85.9043 72.0079 83.2959 75.4068V75.2882Z" fill="#F6C6C6"/>
</g>
<defs>
<clipPath id="clip0_4_123">
<rect width="101.254" height="101.254" fill="white" transform="translate(0.656738)"/>
</clipPath>
</defs>
</svg>
