<svg width="28" height="19" viewBox="0 0 28 19" fill="none" xmlns="http://www.w3.org/2000/svg">
<g clip-path="url(#clip0_4_86)">
<path d="M26.8438 2.9375C26.6979 2.375 26.4167 1.88542 26 1.46875C25.5833 1.05208 25.0938 0.760418 24.5312 0.59375H24.5C23.9792 0.447916 23.1458 0.333334 22 0.25C20.8333 0.1875 19.6667 0.135417 18.5 0.09375C17.3333 0.052083 16.3021 0.03125 15.4062 0.03125C14.5104 0.010417 14.0625 0 14.0625 0C14.0625 0 13.6146 0.010417 12.7188 0.03125C11.8229 0.03125 10.7917 0.046875 9.625 0.078125C8.45833 0.109375 7.29167 0.15625 6.125 0.21875C4.97916 0.302084 4.14584 0.416666 3.625 0.5625C3.04166 0.729167 2.54167 1.02083 2.125 1.4375C1.70833 1.85417 1.42708 2.34375 1.28125 2.90625C0.989582 3.96876 0.822917 5.30728 0.78125 6.92188C0.739583 8.53647 0.71875 9.34375 0.71875 9.34375C0.71875 9.34375 0.739583 10.1562 0.78125 11.7812C0.822917 13.4063 0.979165 14.7292 1.25 15.75C1.39583 16.3333 1.68229 16.8333 2.10938 17.25C2.53646 17.6667 3.03125 17.9583 3.59375 18.125C4.13542 18.25 4.97916 18.3542 6.125 18.4375C7.27084 18.5208 8.43229 18.5833 9.60938 18.625C10.7865 18.6667 11.8229 18.6875 12.7188 18.6875C13.5938 18.6875 14.0312 18.6875 14.0312 18.6875C14.0312 18.6875 14.4792 18.6875 15.375 18.6875C16.2708 18.6875 17.3073 18.6719 18.4844 18.6406C19.6615 18.6094 20.8229 18.5521 21.9688 18.4688C23.1146 18.4062 23.9479 18.3021 24.4688 18.1562C25.0521 17.9896 25.5521 17.6979 25.9688 17.2812C26.3854 16.8646 26.6771 16.3854 26.8438 15.8438V15.8125C27.1146 14.7708 27.276 13.4375 27.3281 11.8125C27.3802 10.1875 27.4062 9.375 27.4062 9.375C27.4062 9.375 27.3854 8.56251 27.3438 6.9375C27.3021 5.31249 27.1354 3.97917 26.8438 2.9375ZM11.375 13.3438L11.4062 5.34375L18.3438 9.34375L11.375 13.3438Z" fill="#A14343"/>
</g>
<defs>
<clipPath id="clip0_4_86">
<rect width="26.6875" height="18.6875" fill="white" transform="translate(0.71875)"/>
</clipPath>
</defs>
</svg>
